<svg width="152" height="36" viewBox="0 0 152 36" fill="none" xmlns="http://www.w3.org/2000/svg">
<g clip-path="url(#clip0_4575_80)">
<circle cx="16" cy="18" r="16" fill="#4640DE"/>
<mask id="path-2-inside-1_4575_80" fill="white">
<path d="M16 30C18.6652 30 21.3304 27.8953 23.0607 26.179C23.4599 25.7831 22.9792 25.2122 22.4822 25.4749C20.6013 26.469 18.0181 27.6 16 27.6C13.9819 27.6 11.3987 26.469 9.5178 25.4749C9.02076 25.2122 8.54012 25.7831 8.93926 26.179C10.6696 27.8953 13.3348 30 16 30Z"/>
</mask>
<path d="M23.0607 26.179L25.1734 28.3089V28.3089L23.0607 26.179ZM8.93926 26.179L6.82658 28.3089H6.82658L8.93926 26.179ZM9.5178 25.4749L10.9197 22.8226L10.9197 22.8226L9.5178 25.4749ZM22.4822 25.4749L21.0803 22.8226L21.0803 22.8226L22.4822 25.4749ZM20.948 24.0491C20.1783 24.8126 19.2652 25.5953 18.3201 26.1712C17.3491 26.7627 16.5672 27 16 27V33C18.098 33 19.9813 32.1849 21.4419 31.2951C22.9282 30.3895 24.2129 29.2616 25.1734 28.3089L20.948 24.0491ZM16 27C15.4328 27 14.6509 26.7627 13.6799 26.1712C12.7348 25.5953 11.8217 24.8126 11.052 24.0491L6.82658 28.3089C7.78708 29.2616 9.07177 30.3895 10.5581 31.2951C12.0187 32.1849 13.902 33 16 33V27ZM8.11593 28.1272C9.1314 28.6639 10.3827 29.2629 11.6934 29.7336C12.967 30.1911 14.4921 30.6 16 30.6V24.6C15.4899 24.6 14.7143 24.4434 13.7216 24.0868C12.7658 23.7436 11.7851 23.28 10.9197 22.8226L8.11593 28.1272ZM16 30.6C17.5079 30.6 19.033 30.1911 20.3066 29.7336C21.6173 29.2629 22.8686 28.6639 23.8841 28.1272L21.0803 22.8226C20.2149 23.28 19.2342 23.7436 18.2785 24.0868C17.2857 24.4434 16.5101 24.6 16 24.6V30.6ZM25.1734 28.3089C25.7674 27.7197 26.1776 26.8995 26.2071 25.9593C26.2356 25.0551 25.905 24.2526 25.4152 23.663C24.4114 22.4547 22.6321 22.0024 21.0803 22.8226L23.8841 28.1272C22.8293 28.6847 21.5389 28.3865 20.7999 27.4969C20.4425 27.0667 20.1883 26.4648 20.2101 25.7708C20.2331 25.0407 20.5536 24.4403 20.948 24.0491L25.1734 28.3089ZM11.052 24.0491C11.4464 24.4403 11.7669 25.0407 11.7899 25.7708C11.8117 26.4648 11.5575 27.0667 11.2001 27.4969C10.4611 28.3865 9.17068 28.6847 8.11593 28.1272L10.9197 22.8226C9.36787 22.0024 7.5886 22.4547 6.58483 23.663C6.09504 24.2526 5.76443 25.0551 5.79286 25.9593C5.82241 26.8995 6.23259 27.7197 6.82658 28.3089L11.052 24.0491Z" fill="white" mask="url(#path-2-inside-1_4575_80)"/>
<circle cx="15.8055" cy="16.1946" r="7.49047" transform="rotate(-90 15.8055 16.1946)" stroke="white" stroke-width="2" stroke-linecap="round" stroke-linejoin="round"/>
<path d="M21.4043 10.9849L24.3334 8.04817" stroke="white" stroke-width="2" stroke-linecap="round" stroke-linejoin="round"/>
</g>
<path d="M54.712 27.816L53.584 26.424C53.008 26.68 52.4 26.88 51.76 27.024C51.12 27.184 50.448 27.264 49.744 27.264C48.496 27.264 47.336 27.048 46.264 26.616C45.192 26.168 44.248 25.552 43.432 24.768C42.632 23.968 42 23.048 41.536 22.008C41.088 20.952 40.864 19.816 40.864 18.6C40.864 17.384 41.088 16.256 41.536 15.216C42 14.16 42.632 13.24 43.432 12.456C44.248 11.656 45.192 11.04 46.264 10.608C47.336 10.16 48.496 9.936 49.744 9.936C50.992 9.936 52.152 10.16 53.224 10.608C54.312 11.04 55.256 11.656 56.056 12.456C56.872 13.24 57.504 14.16 57.952 15.216C58.4 16.256 58.624 17.384 58.624 18.6C58.624 19.8 58.392 20.928 57.928 21.984C57.48 23.024 56.864 23.936 56.08 24.72L57.76 26.808L54.712 27.816ZM49.744 24.072C50.064 24.072 50.36 24.048 50.632 24C50.92 23.936 51.192 23.848 51.448 23.736L49.648 21.48L52.672 20.472L53.92 22.008C54.288 21.544 54.568 21.024 54.76 20.448C54.968 19.872 55.072 19.256 55.072 18.6C55.072 17.816 54.936 17.096 54.664 16.44C54.392 15.768 54.016 15.192 53.536 14.712C53.056 14.216 52.496 13.832 51.856 13.56C51.216 13.272 50.512 13.128 49.744 13.128C48.992 13.128 48.288 13.272 47.632 13.56C46.992 13.832 46.432 14.216 45.952 14.712C45.488 15.192 45.12 15.768 44.848 16.44C44.576 17.096 44.44 17.816 44.44 18.6C44.44 19.368 44.576 20.088 44.848 20.76C45.12 21.432 45.488 22.016 45.952 22.512C46.432 22.992 46.992 23.376 47.632 23.664C48.288 23.936 48.992 24.072 49.744 24.072ZM65.4274 27.24C64.4674 27.24 63.6114 27.032 62.8594 26.616C62.1234 26.184 61.5394 25.592 61.1074 24.84C60.6914 24.088 60.4834 23.224 60.4834 22.248V14.496H63.7714V21.768C63.7714 22.568 64.0034 23.208 64.4674 23.688C64.9474 24.168 65.5874 24.408 66.3874 24.408C66.9314 24.408 67.4194 24.304 67.8514 24.096C68.2994 23.872 68.6674 23.56 68.9554 23.16V14.496H72.2434V27H68.9554V25.992C67.9954 26.824 66.8194 27.24 65.4274 27.24ZM74.566 27V14.496H77.854V27H74.566ZM76.198 13.008C75.686 13.008 75.246 12.824 74.878 12.456C74.51 12.088 74.326 11.648 74.326 11.136C74.326 10.608 74.51 10.168 74.878 9.816C75.246 9.448 75.686 9.264 76.198 9.264C76.726 9.264 77.166 9.448 77.518 9.816C77.886 10.168 78.07 10.608 78.07 11.136C78.07 11.648 77.886 12.088 77.518 12.456C77.166 12.824 76.726 13.008 76.198 13.008ZM86.1614 27.24C84.9294 27.24 83.8174 26.96 82.8254 26.4C81.8334 25.824 81.0494 25.048 80.4734 24.072C79.8974 23.08 79.6094 21.976 79.6094 20.76C79.6094 19.528 79.8974 18.424 80.4734 17.448C81.0494 16.472 81.8334 15.696 82.8254 15.12C83.8174 14.544 84.9294 14.256 86.1614 14.256C87.1534 14.256 88.0974 14.448 88.9934 14.832C89.9054 15.216 90.6894 15.768 91.3454 16.488L89.3294 18.624C88.8654 18.112 88.3774 17.736 87.8654 17.496C87.3694 17.24 86.8254 17.112 86.2334 17.112C85.5934 17.112 85.0174 17.272 84.5054 17.592C84.0094 17.912 83.6094 18.344 83.3054 18.888C83.0174 19.432 82.8734 20.056 82.8734 20.76C82.8734 21.432 83.0174 22.048 83.3054 22.608C83.6094 23.152 84.0254 23.584 84.5534 23.904C85.0814 24.208 85.6654 24.36 86.3054 24.36C86.8654 24.36 87.3854 24.248 87.8654 24.024C88.3614 23.784 88.8334 23.432 89.2814 22.968L91.2494 25.032C90.6094 25.72 89.8414 26.264 88.9454 26.664C88.0494 27.048 87.1214 27.24 86.1614 27.24ZM92.7188 27V10.2L96.0068 9.648V19.752L101.407 14.496H105.127L99.2228 20.232L105.487 27H101.287L96.0068 21.288V27H92.7188ZM106.335 27V10.2H109.815V16.968H117.543V10.2H121.023V27H117.543V20.112H109.815V27H106.335ZM123.622 27V14.496H126.91V27H123.622ZM125.254 13.008C124.742 13.008 124.302 12.824 123.934 12.456C123.566 12.088 123.382 11.648 123.382 11.136C123.382 10.608 123.566 10.168 123.934 9.816C124.302 9.448 124.742 9.264 125.254 9.264C125.782 9.264 126.222 9.448 126.574 9.816C126.942 10.168 127.126 10.608 127.126 11.136C127.126 11.648 126.942 12.088 126.574 12.456C126.222 12.824 125.782 13.008 125.254 13.008ZM129.241 27V14.496H132.529V15.888C132.929 15.344 133.409 14.928 133.969 14.64C134.529 14.352 135.161 14.208 135.865 14.208C136.473 14.224 136.929 14.32 137.233 14.496V17.376C136.993 17.264 136.729 17.184 136.441 17.136C136.153 17.072 135.857 17.04 135.553 17.04C134.913 17.04 134.329 17.2 133.801 17.52C133.273 17.84 132.849 18.296 132.529 18.888V27H129.241ZM144.426 27.24C143.178 27.24 142.042 26.952 141.018 26.376C140.01 25.8 139.21 25.024 138.618 24.048C138.026 23.072 137.73 21.976 137.73 20.76C137.73 19.544 138.01 18.448 138.57 17.472C139.146 16.496 139.922 15.72 140.898 15.144C141.874 14.568 142.962 14.28 144.162 14.28C145.362 14.28 146.426 14.576 147.354 15.168C148.282 15.76 149.01 16.56 149.538 17.568C150.082 18.576 150.354 19.72 150.354 21V21.864H141.09C141.234 22.36 141.466 22.808 141.786 23.208C142.122 23.608 142.53 23.92 143.01 24.144C143.506 24.368 144.034 24.48 144.594 24.48C145.154 24.48 145.666 24.392 146.13 24.216C146.61 24.04 147.018 23.792 147.354 23.472L149.514 25.44C148.746 26.064 147.954 26.52 147.138 26.808C146.338 27.096 145.434 27.24 144.426 27.24ZM141.042 19.512H147.114C147.002 19.016 146.794 18.584 146.49 18.216C146.202 17.832 145.85 17.536 145.434 17.328C145.034 17.104 144.586 16.992 144.09 16.992C143.578 16.992 143.114 17.096 142.698 17.304C142.282 17.512 141.93 17.808 141.642 18.192C141.37 18.56 141.17 19 141.042 19.512Z" fill="#25324B"/>
<g clip-path="url(#clip1_4575_80)">
<circle cx="16" cy="18" r="16" fill="#4640DE"/>
<mask id="path-8-inside-2_4575_80" fill="white">
<path d="M16 29C18.6652 29 21.3304 26.8953 23.0607 25.179C23.4599 24.7831 22.9792 24.2122 22.4822 24.4749C20.6013 25.469 18.0181 26.6 16 26.6C13.9819 26.6 11.3987 25.469 9.5178 24.4749C9.02076 24.2122 8.54012 24.7831 8.93926 25.179C10.6696 26.8953 13.3348 29 16 29Z"/>
</mask>
<path d="M23.0607 25.179L25.1734 27.3089V27.3089L23.0607 25.179ZM8.93926 25.179L6.82658 27.3089H6.82658L8.93926 25.179ZM9.5178 24.4749L10.9197 21.8226L10.9197 21.8226L9.5178 24.4749ZM22.4822 24.4749L21.0803 21.8226L21.0803 21.8226L22.4822 24.4749ZM20.948 23.0491C20.1783 23.8126 19.2652 24.5953 18.3201 25.1712C17.3491 25.7627 16.5672 26 16 26V32C18.098 32 19.9813 31.1849 21.4419 30.2951C22.9282 29.3895 24.2129 28.2616 25.1734 27.3089L20.948 23.0491ZM16 26C15.4328 26 14.6509 25.7627 13.6799 25.1712C12.7348 24.5953 11.8217 23.8126 11.052 23.0491L6.82658 27.3089C7.78708 28.2616 9.07177 29.3895 10.5581 30.2951C12.0187 31.1849 13.902 32 16 32V26ZM8.11593 27.1272C9.1314 27.6639 10.3827 28.2629 11.6934 28.7336C12.967 29.1911 14.4921 29.6 16 29.6V23.6C15.4899 23.6 14.7143 23.4434 13.7216 23.0868C12.7658 22.7436 11.7851 22.28 10.9197 21.8226L8.11593 27.1272ZM16 29.6C17.5079 29.6 19.033 29.1911 20.3066 28.7336C21.6173 28.2629 22.8686 27.6639 23.8841 27.1272L21.0803 21.8226C20.2149 22.28 19.2342 22.7436 18.2785 23.0868C17.2857 23.4434 16.5101 23.6 16 23.6V29.6ZM25.1734 27.3089C25.7674 26.7197 26.1776 25.8995 26.2071 24.9593C26.2356 24.0551 25.905 23.2526 25.4152 22.663C24.4114 21.4547 22.6321 21.0024 21.0803 21.8226L23.8841 27.1272C22.8293 27.6847 21.5389 27.3865 20.7999 26.4969C20.4425 26.0667 20.1883 25.4648 20.2101 24.7708C20.2331 24.0407 20.5536 23.4403 20.948 23.0491L25.1734 27.3089ZM11.052 23.0491C11.4464 23.4403 11.7669 24.0407 11.7899 24.7708C11.8117 25.4648 11.5575 26.0667 11.2001 26.4969C10.4611 27.3865 9.17068 27.6847 8.11593 27.1272L10.9197 21.8226C9.36787 21.0024 7.5886 21.4547 6.58483 22.663C6.09504 23.2526 5.76443 24.0551 5.79286 24.9593C5.82241 25.8995 6.23259 26.7197 6.82658 27.3089L11.052 23.0491Z" fill="white" mask="url(#path-8-inside-2_4575_80)"/>
<path d="M21.7119 11.3158C21.3919 10.9936 21.3919 10.4773 21.7119 10.1552L23.4303 8.02632L23.4303 7.98937C23.8656 7.55866 24.5715 7.55866 25.0068 7.98937C25.4421 8.42007 25.4421 9.11837 25.0068 9.54907L22.982 11.3158L22.9064 11.3828C22.7483 11.5077 22.5512 11.5766 22.3469 11.5766C22.1086 11.5766 21.8801 11.4828 21.7119 11.3158ZM8.66663 17.185C8.66663 15.2892 9.42782 13.4711 10.7828 12.1306C12.1377 10.79 13.9754 10.0369 15.8916 10.0369C19.8818 10.0369 23.1165 13.2372 23.1165 17.185C23.1165 21.1327 19.8818 24.333 15.8916 24.333C11.9013 24.333 8.66663 21.1327 8.66663 17.185Z" fill="white"/>
</g>
<defs>
<clipPath id="clip0_4575_80">
<rect width="32" height="32" fill="white" transform="translate(0 2)"/>
</clipPath>
<clipPath id="clip1_4575_80">
<rect width="32" height="32" fill="white" transform="translate(0 2)"/>
</clipPath>
</defs>
</svg>
